# xmcd CD database file
#
# Track frame offsets:
#	150
#	19944
#	34266
#	49758
#	64960
#	80506
#	94802
#	106504
#	119820
#	134816
#	150053
#
# Disc length: 2287 seconds
#
# Revision: 1
# Processed by: cddbd v1.5.2PL0 Copyright (c) Steve Scherf et al.
# Submitted via: CDex 1.83
#
DISCID=9008ed0b
DTITLE=Lincoln Durham - The Shovel vs. the Howling Bones
DYEAR=2012
DGENRE=Blues
TTITLE0=Drifting Wood
TTITLE1=Last Red Dawn
TTITLE2=Living This Hard
TTITLE3=Clementine
TTITLE4=Mud Puddles
TTITLE5=Reckoning Lament
TTITLE6=How Does a Crow Fly
TTITLE7=Love Letters
TTITLE8=Georgia Lee
TTITLE9=People of the Land
TTITLE10=Lincoln Durham - Trucker's Love Song
EXTD=YEAR: 2012
EXTT0=
EXTT1=
EXTT2=
EXTT3=
EXTT4=
EXTT5=
EXTT6=
EXTT7=
EXTT8=
EXTT9=
EXTT10=
PLAYORDER=
